<svg width="17" height="17" viewBox="0 0 17 17" fill="none" xmlns="http://www.w3.org/2000/svg">
<path d="M4.61841 2.92858C5.14484 2.76206 5.70025 2.7066 6.24927 2.76517C6.79824 2.82376 7.3291 2.99526 7.80851 3.26907C8.0579 3.41152 8.29033 3.5804 8.50252 3.77168C8.71457 3.58263 8.94665 3.41617 9.19523 3.27558C9.67435 3.00464 10.2044 2.8356 10.7519 2.77884C11.2994 2.72209 11.853 2.77855 12.3775 2.9455C12.9021 3.11246 13.3867 3.3861 13.8007 3.74889C14.2147 4.11166 14.5494 4.5562 14.7838 5.05423C15.0181 5.55223 15.147 6.09327 15.1627 6.64342C15.1783 7.19368 15.08 7.74154 14.8743 8.25214C14.6686 8.7626 14.36 9.22522 13.9674 9.61087C13.9553 9.62269 13.9423 9.63335 13.9296 9.64407L8.96932 14.5568C8.7095 14.8142 8.29099 14.8141 8.03117 14.5568L3.03117 9.60501V9.60436C2.63752 9.22011 2.32701 8.75913 2.11971 8.24954C1.91164 7.73805 1.81155 7.18891 1.82609 6.63691C1.84065 6.08494 1.96965 5.54166 2.20435 5.04186C2.43906 4.54216 2.77464 4.09627 3.19002 3.73261C3.60548 3.36892 4.09197 3.09513 4.61841 2.92858ZM6.10734 4.09069C5.74138 4.05169 5.37099 4.08905 5.0201 4.20006C4.66927 4.31111 4.34516 4.49348 4.06828 4.73587C3.79129 4.97836 3.5672 5.27569 3.41073 5.60892C3.2543 5.94208 3.16848 6.30413 3.15877 6.67207C3.14908 7.04 3.21608 7.40599 3.35474 7.74694C3.47614 8.04538 3.65057 8.31912 3.86906 8.55488L3.96476 8.65384L3.96932 8.65774L8.49992 13.1447L13.0312 8.65774C13.0405 8.6485 13.0501 8.63963 13.0598 8.63105C13.3084 8.37956 13.5057 8.08171 13.6379 7.75345C13.775 7.41312 13.8404 7.04793 13.83 6.68118C13.8195 6.3145 13.7336 5.95387 13.5774 5.62194C13.4211 5.28988 13.1978 4.99335 12.9218 4.75149C12.6458 4.5097 12.3228 4.32764 11.9732 4.21634C11.6235 4.10503 11.2543 4.06718 10.8892 4.10501C10.5243 4.14286 10.1709 4.25513 9.85148 4.43574C9.53211 4.61635 9.25365 4.86125 9.03312 5.15449C8.90679 5.3225 8.70817 5.42135 8.49797 5.42076C8.28788 5.42009 8.0901 5.32051 7.96476 5.15188C7.7452 4.85647 7.46731 4.6092 7.14771 4.42662C6.82804 4.24404 6.4734 4.12974 6.10734 4.09069Z" fill="#858593"/>
</svg>
