<svg width="136" height="99" viewBox="0 0 136 99" fill="none" xmlns="http://www.w3.org/2000/svg">
<path d="M60.9683 77.114C62.196 78.4332 64.278 79.9507 66.4899 80.379C67.5641 80.5869 68.6455 80.535 69.7008 80.1078C70.757 79.6802 71.8968 78.8315 73.0149 77.2698L75.5777 79.0956C74.1774 81.0515 72.5886 82.3281 70.8838 83.0182C69.1779 83.7086 67.4652 83.7673 65.8898 83.4623C62.8024 82.8645 60.162 80.8638 58.6613 79.2514L60.9683 77.114Z" fill="black"/>
<path d="M78.0741 15.3622V23.1227C87.4951 31.61 108.489 48.056 126.573 54.533L124.02 61.6273C103.633 54.3254 80.634 35.8 71.7261 27.5472L70.5185 26.4294V22.9006H66.1111V15.3622H78.0741Z" fill="black"/>
<path d="M57.9259 15.3622V23.1227C48.505 31.61 27.5112 48.056 9.42725 54.533L11.9802 61.6273C32.3672 54.3254 55.366 35.8 64.2739 27.5472L65.4815 26.4294V22.9006H69.8889V15.3622H57.9259Z" fill="black"/>
<path d="M62.7527 32.3888C61.3183 36.1091 56.9898 41.714 49.7223 48.1074C42.5064 54.4553 32.5388 61.4539 20.0461 67.9977L21.5095 70.778C34.2017 64.1296 44.3825 56.9933 51.8055 50.4631C59.1762 43.9789 63.9778 37.9614 65.6918 33.5151L62.7527 32.3888Z" fill="black"/>
<path d="M72.6177 32.3888C74.0521 36.1091 78.3806 41.714 85.6481 48.1074C92.864 54.4553 102.832 61.4539 115.324 67.9977L113.861 70.778C101.169 64.1296 90.9879 56.9933 83.5649 50.4631C76.1942 43.9789 71.3926 37.9614 69.6786 33.5151L72.6177 32.3888Z" fill="black"/>
<path d="M54.9241 36.8672C44.3155 47.4518 36.2779 54.2389 18.8557 62.3095L20.1814 65.1585C38.0184 56.8957 46.3512 49.8623 57.15 39.088L54.9241 36.8672Z" fill="black"/>
<path d="M80.4463 36.8672C91.0549 47.4518 99.0925 54.2389 116.515 62.3095L115.189 65.1585C97.352 56.8957 89.0192 49.8623 78.2204 39.088L80.4463 36.8672Z" fill="black"/>
<path d="M45.2005 64.2326C46.4557 62.691 50.0504 61.0134 55.9079 61.9725L55.3987 65.0718C50.1784 64.2169 47.9261 65.8648 47.6427 66.2129L45.2005 64.2326Z" fill="black"/>
<path d="M73.0272 64.5345C74.2635 62.8521 77.8879 60.9582 83.8096 62.0327L83.2464 65.1234C78.0904 64.1878 75.8678 65.9805 75.5654 66.3921L73.0272 64.5345Z" fill="black"/>
<path d="M59.8148 66.875C59.8148 69.6506 57.5597 71.9006 54.7778 71.9006C51.9959 71.9006 49.7408 69.6506 49.7408 66.875C49.7408 64.0994 51.9959 61.8494 54.7778 61.8494C57.5597 61.8494 59.8148 64.0994 59.8148 66.875Z" fill="black"/>
<path d="M87.5185 66.875C87.5185 69.6506 85.2634 71.9006 82.4815 71.9006C79.6996 71.9006 77.4445 69.6506 77.4445 66.875C77.4445 64.0994 79.6996 61.8494 82.4815 61.8494C85.2634 61.8494 87.5185 64.0994 87.5185 66.875Z" fill="black"/>
</svg>
